%TF.GenerationSoftware,KiCad,Pcbnew,7.0.6-0*%
%TF.CreationDate,2023-11-19T18:43:49-05:00*%
%TF.ProjectId,anti_grinding_schematic,616e7469-5f67-4726-996e-64696e675f73,rev?*%
%TF.SameCoordinates,Original*%
%TF.FileFunction,Paste,Top*%
%TF.FilePolarity,Positive*%
%FSLAX46Y46*%
G04 Gerber Fmt 4.6, Leading zero omitted, Abs format (unit mm)*
G04 Created by KiCad (PCBNEW 7.0.6-0) date 2023-11-19 18:43:49*
%MOMM*%
%LPD*%
G01*
G04 APERTURE LIST*
G04 Aperture macros list*
%AMRoundRect*
0 Rectangle with rounded corners*
0 $1 Rounding radius*
0 $2 $3 $4 $5 $6 $7 $8 $9 X,Y pos of 4 corners*
0 Add a 4 corners polygon primitive as box body*
4,1,4,$2,$3,$4,$5,$6,$7,$8,$9,$2,$3,0*
0 Add four circle primitives for the rounded corners*
1,1,$1+$1,$2,$3*
1,1,$1+$1,$4,$5*
1,1,$1+$1,$6,$7*
1,1,$1+$1,$8,$9*
0 Add four rect primitives between the rounded corners*
20,1,$1+$1,$2,$3,$4,$5,0*
20,1,$1+$1,$4,$5,$6,$7,0*
20,1,$1+$1,$6,$7,$8,$9,0*
20,1,$1+$1,$8,$9,$2,$3,0*%
G04 Aperture macros list end*
%ADD10R,2.600000X5.560000*%
%ADD11RoundRect,0.050000X-0.050000X-0.387500X0.050000X-0.387500X0.050000X0.387500X-0.050000X0.387500X0*%
%ADD12RoundRect,0.050000X-0.387500X-0.050000X0.387500X-0.050000X0.387500X0.050000X-0.387500X0.050000X0*%
%ADD13RoundRect,0.250000X-0.315000X-0.315000X0.315000X-0.315000X0.315000X0.315000X-0.315000X0.315000X0*%
%ADD14R,2.500000X1.250000*%
G04 APERTURE END LIST*
D10*
%TO.C,BT1*%
X90490000Y-59296250D03*
X114300000Y-59296250D03*
%TD*%
D11*
%TO.C,U1*%
X101832500Y-72178750D03*
X102232500Y-72178750D03*
X102632500Y-72178750D03*
X103032500Y-72178750D03*
X103432500Y-72178750D03*
X103832500Y-72178750D03*
X104232500Y-72178750D03*
X104632500Y-72178750D03*
X105032500Y-72178750D03*
X105432500Y-72178750D03*
X105832500Y-72178750D03*
X106232500Y-72178750D03*
X106632500Y-72178750D03*
X107032500Y-72178750D03*
D12*
X107870000Y-73016250D03*
X107870000Y-73416250D03*
X107870000Y-73816250D03*
X107870000Y-74216250D03*
X107870000Y-74616250D03*
X107870000Y-75016250D03*
X107870000Y-75416250D03*
X107870000Y-75816250D03*
X107870000Y-76216250D03*
X107870000Y-76616250D03*
X107870000Y-77016250D03*
X107870000Y-77416250D03*
X107870000Y-77816250D03*
X107870000Y-78216250D03*
D11*
X107032500Y-79053750D03*
X106632500Y-79053750D03*
X106232500Y-79053750D03*
X105832500Y-79053750D03*
X105432500Y-79053750D03*
X105032500Y-79053750D03*
X104632500Y-79053750D03*
X104232500Y-79053750D03*
X103832500Y-79053750D03*
X103432500Y-79053750D03*
X103032500Y-79053750D03*
X102632500Y-79053750D03*
X102232500Y-79053750D03*
X101832500Y-79053750D03*
D12*
X100995000Y-78216250D03*
X100995000Y-77816250D03*
X100995000Y-77416250D03*
X100995000Y-77016250D03*
X100995000Y-76616250D03*
X100995000Y-76216250D03*
X100995000Y-75816250D03*
X100995000Y-75416250D03*
X100995000Y-75016250D03*
X100995000Y-74616250D03*
X100995000Y-74216250D03*
X100995000Y-73816250D03*
X100995000Y-73416250D03*
X100995000Y-73016250D03*
D13*
X106532500Y-77716250D03*
X106532500Y-76316250D03*
X106532500Y-74916250D03*
X106532500Y-73516250D03*
X105132500Y-77716250D03*
X105132500Y-76316250D03*
X105132500Y-74916250D03*
X105132500Y-73516250D03*
X103732500Y-77716250D03*
X103732500Y-76316250D03*
X103732500Y-74916250D03*
X103732500Y-73516250D03*
X102332500Y-77716250D03*
X102332500Y-76316250D03*
X102332500Y-74916250D03*
X102332500Y-73516250D03*
%TD*%
D14*
%TO.C,SW4*%
X92222500Y-73816250D03*
X92222500Y-76316250D03*
X92222500Y-78816250D03*
%TD*%
M02*
