%TF.GenerationSoftware,KiCad,Pcbnew,7.0.6-0*%
%TF.CreationDate,2023-11-19T18:43:49-05:00*%
%TF.ProjectId,anti_grinding_schematic,616e7469-5f67-4726-996e-64696e675f73,rev?*%
%TF.SameCoordinates,Original*%
%TF.FileFunction,Legend,Top*%
%TF.FilePolarity,Positive*%
%FSLAX46Y46*%
G04 Gerber Fmt 4.6, Leading zero omitted, Abs format (unit mm)*
G04 Created by KiCad (PCBNEW 7.0.6-0) date 2023-11-19 18:43:49*
%MOMM*%
%LPD*%
G01*
G04 APERTURE LIST*
%ADD10C,0.100000*%
%ADD11C,0.150000*%
%ADD12C,0.120000*%
G04 APERTURE END LIST*
D10*
X101609285Y-48029859D02*
X101752142Y-48077478D01*
X101752142Y-48077478D02*
X101799761Y-48125097D01*
X101799761Y-48125097D02*
X101847380Y-48220335D01*
X101847380Y-48220335D02*
X101847380Y-48363192D01*
X101847380Y-48363192D02*
X101799761Y-48458430D01*
X101799761Y-48458430D02*
X101752142Y-48506050D01*
X101752142Y-48506050D02*
X101656904Y-48553669D01*
X101656904Y-48553669D02*
X101275952Y-48553669D01*
X101275952Y-48553669D02*
X101275952Y-47553669D01*
X101275952Y-47553669D02*
X101609285Y-47553669D01*
X101609285Y-47553669D02*
X101704523Y-47601288D01*
X101704523Y-47601288D02*
X101752142Y-47648907D01*
X101752142Y-47648907D02*
X101799761Y-47744145D01*
X101799761Y-47744145D02*
X101799761Y-47839383D01*
X101799761Y-47839383D02*
X101752142Y-47934621D01*
X101752142Y-47934621D02*
X101704523Y-47982240D01*
X101704523Y-47982240D02*
X101609285Y-48029859D01*
X101609285Y-48029859D02*
X101275952Y-48029859D01*
X102133095Y-47553669D02*
X102704523Y-47553669D01*
X102418809Y-48553669D02*
X102418809Y-47553669D01*
X103561666Y-48553669D02*
X102990238Y-48553669D01*
X103275952Y-48553669D02*
X103275952Y-47553669D01*
X103275952Y-47553669D02*
X103180714Y-47696526D01*
X103180714Y-47696526D02*
X103085476Y-47791764D01*
X103085476Y-47791764D02*
X102990238Y-47839383D01*
D11*
X97487319Y-84269583D02*
X98201604Y-84269583D01*
X98201604Y-84269583D02*
X98344461Y-84317202D01*
X98344461Y-84317202D02*
X98439700Y-84412440D01*
X98439700Y-84412440D02*
X98487319Y-84555297D01*
X98487319Y-84555297D02*
X98487319Y-84650535D01*
X98487319Y-83269583D02*
X98487319Y-83841011D01*
X98487319Y-83555297D02*
X97487319Y-83555297D01*
X97487319Y-83555297D02*
X97630176Y-83650535D01*
X97630176Y-83650535D02*
X97725414Y-83745773D01*
X97725414Y-83745773D02*
X97773033Y-83841011D01*
X103670595Y-70251069D02*
X103670595Y-71060592D01*
X103670595Y-71060592D02*
X103718214Y-71155830D01*
X103718214Y-71155830D02*
X103765833Y-71203450D01*
X103765833Y-71203450D02*
X103861071Y-71251069D01*
X103861071Y-71251069D02*
X104051547Y-71251069D01*
X104051547Y-71251069D02*
X104146785Y-71203450D01*
X104146785Y-71203450D02*
X104194404Y-71155830D01*
X104194404Y-71155830D02*
X104242023Y-71060592D01*
X104242023Y-71060592D02*
X104242023Y-70251069D01*
X105242023Y-71251069D02*
X104670595Y-71251069D01*
X104956309Y-71251069D02*
X104956309Y-70251069D01*
X104956309Y-70251069D02*
X104861071Y-70393926D01*
X104861071Y-70393926D02*
X104765833Y-70489164D01*
X104765833Y-70489164D02*
X104670595Y-70536783D01*
X90579700Y-77649582D02*
X90627319Y-77506725D01*
X90627319Y-77506725D02*
X90627319Y-77268630D01*
X90627319Y-77268630D02*
X90579700Y-77173392D01*
X90579700Y-77173392D02*
X90532080Y-77125773D01*
X90532080Y-77125773D02*
X90436842Y-77078154D01*
X90436842Y-77078154D02*
X90341604Y-77078154D01*
X90341604Y-77078154D02*
X90246366Y-77125773D01*
X90246366Y-77125773D02*
X90198747Y-77173392D01*
X90198747Y-77173392D02*
X90151128Y-77268630D01*
X90151128Y-77268630D02*
X90103509Y-77459106D01*
X90103509Y-77459106D02*
X90055890Y-77554344D01*
X90055890Y-77554344D02*
X90008271Y-77601963D01*
X90008271Y-77601963D02*
X89913033Y-77649582D01*
X89913033Y-77649582D02*
X89817795Y-77649582D01*
X89817795Y-77649582D02*
X89722557Y-77601963D01*
X89722557Y-77601963D02*
X89674938Y-77554344D01*
X89674938Y-77554344D02*
X89627319Y-77459106D01*
X89627319Y-77459106D02*
X89627319Y-77221011D01*
X89627319Y-77221011D02*
X89674938Y-77078154D01*
X89627319Y-76744820D02*
X90627319Y-76506725D01*
X90627319Y-76506725D02*
X89913033Y-76316249D01*
X89913033Y-76316249D02*
X90627319Y-76125773D01*
X90627319Y-76125773D02*
X89627319Y-75887678D01*
X89960652Y-75078154D02*
X90627319Y-75078154D01*
X89579700Y-75316249D02*
X90293985Y-75554344D01*
X90293985Y-75554344D02*
X90293985Y-74935297D01*
D10*
%TO.C,BT1*%
X112865000Y-62296250D02*
X112865000Y-56296250D01*
X91925000Y-56296250D02*
X91925000Y-62296250D01*
D12*
X91925000Y-54411250D02*
X93532090Y-54411250D01*
X91925000Y-56296250D02*
X91925000Y-54411250D01*
X91925000Y-62296250D02*
X91925000Y-64181250D01*
X91925000Y-64181250D02*
X93532090Y-64181250D01*
X112865000Y-54411250D02*
X111257910Y-54411250D01*
X112865000Y-56296250D02*
X112865000Y-54411250D01*
X112865000Y-62296250D02*
X112865000Y-64181250D01*
X112865000Y-64181250D02*
X111257910Y-64181250D01*
X111257909Y-54411250D02*
G75*
G03*
X93532091Y-54411250I-8862909J-4885000D01*
G01*
X93532090Y-64181250D02*
G75*
G03*
X111260021Y-64177418I8862910J4884999D01*
G01*
%TO.C,J1*%
X100277500Y-83327974D02*
X100277500Y-83241250D01*
X98907500Y-84631250D02*
X98907500Y-83936250D01*
X99592500Y-84631250D02*
X98907500Y-84631250D01*
X105152500Y-84631250D02*
X105152500Y-84330743D01*
X100277500Y-83241250D02*
X105152500Y-83241250D01*
X100277500Y-84631250D02*
X105152500Y-84631250D01*
X105152500Y-83541757D02*
X105152500Y-83241250D01*
X100277500Y-84631250D02*
X100277500Y-84544526D01*
%TO.C,U1*%
X108042500Y-79226250D02*
X108042500Y-78576250D01*
X108042500Y-72006250D02*
X108042500Y-72656250D01*
X107392500Y-79226250D02*
X108042500Y-79226250D01*
X107392500Y-72006250D02*
X108042500Y-72006250D01*
X101472500Y-79226250D02*
X100822500Y-79226250D01*
X101472500Y-72006250D02*
X100822500Y-72006250D01*
X100822500Y-79226250D02*
X100822500Y-78576250D01*
%TO.C,SW4*%
X96872500Y-71716250D02*
X96872500Y-73416250D01*
X93072500Y-71716250D02*
X96872500Y-71716250D01*
X93072500Y-73116250D02*
X93072500Y-71716250D01*
X97172500Y-73416250D02*
X97172500Y-74216250D01*
X96872500Y-73416250D02*
X97172500Y-73416250D01*
X97172500Y-74216250D02*
X96872500Y-74216250D01*
X96872500Y-74216250D02*
X96872500Y-75916250D01*
X98772500Y-74316250D02*
X98272500Y-74316250D01*
X98772500Y-74316250D02*
X98772500Y-74816250D01*
X98272500Y-74316250D02*
X98272500Y-74316250D01*
X97972500Y-74316250D02*
X97472500Y-74316250D01*
X97472500Y-74316250D02*
X97472500Y-74316250D01*
X93072500Y-74516250D02*
X93072500Y-75616250D01*
X98772500Y-74816250D02*
X98772500Y-74816250D01*
X98772500Y-75116250D02*
X98772500Y-75616250D01*
X98772500Y-75616250D02*
X98772500Y-75616250D01*
X93072500Y-75616250D02*
X93072500Y-75616250D01*
X98772500Y-75916250D02*
X98772500Y-76716250D01*
X97172500Y-75916250D02*
X97172500Y-76716250D01*
X96872500Y-75916250D02*
X97172500Y-75916250D01*
X98772500Y-76716250D02*
X98772500Y-76716250D01*
X97172500Y-76716250D02*
X96872500Y-76716250D01*
X96872500Y-76716250D02*
X96872500Y-78416250D01*
X98772500Y-77016250D02*
X98772500Y-77016250D01*
X93072500Y-77016250D02*
X93072500Y-78116250D01*
X98772500Y-77516250D02*
X98772500Y-77016250D01*
X98772500Y-77816250D02*
X98772500Y-77816250D01*
X93072500Y-78116250D02*
X93072500Y-78116250D01*
X98772500Y-78316250D02*
X98772500Y-77816250D01*
X98772500Y-78316250D02*
X98272500Y-78316250D01*
X98272500Y-78316250D02*
X98272500Y-78316250D01*
X97972500Y-78316250D02*
X97472500Y-78316250D01*
X97472500Y-78316250D02*
X97472500Y-78316250D01*
X97172500Y-78416250D02*
X97172500Y-79216250D01*
X96872500Y-78416250D02*
X97172500Y-78416250D01*
X97172500Y-79216250D02*
X96872500Y-79216250D01*
X96872500Y-79216250D02*
X96872500Y-80916250D01*
X96872500Y-80916250D02*
X96872500Y-80916250D01*
X96872500Y-80916250D02*
X93072500Y-80916250D01*
X93072500Y-80916250D02*
X93072500Y-79516250D01*
%TD*%
M02*
