%TF.GenerationSoftware,KiCad,Pcbnew,7.0.6-0*%
%TF.CreationDate,2023-11-19T18:43:49-05:00*%
%TF.ProjectId,anti_grinding_schematic,616e7469-5f67-4726-996e-64696e675f73,rev?*%
%TF.SameCoordinates,Original*%
%TF.FileFunction,Copper,L1,Top*%
%TF.FilePolarity,Positive*%
%FSLAX46Y46*%
G04 Gerber Fmt 4.6, Leading zero omitted, Abs format (unit mm)*
G04 Created by KiCad (PCBNEW 7.0.6-0) date 2023-11-19 18:43:49*
%MOMM*%
%LPD*%
G01*
G04 APERTURE LIST*
G04 Aperture macros list*
%AMRoundRect*
0 Rectangle with rounded corners*
0 $1 Rounding radius*
0 $2 $3 $4 $5 $6 $7 $8 $9 X,Y pos of 4 corners*
0 Add a 4 corners polygon primitive as box body*
4,1,4,$2,$3,$4,$5,$6,$7,$8,$9,$2,$3,0*
0 Add four circle primitives for the rounded corners*
1,1,$1+$1,$2,$3*
1,1,$1+$1,$4,$5*
1,1,$1+$1,$6,$7*
1,1,$1+$1,$8,$9*
0 Add four rect primitives between the rounded corners*
20,1,$1+$1,$2,$3,$4,$5,0*
20,1,$1+$1,$4,$5,$6,$7,0*
20,1,$1+$1,$6,$7,$8,$9,0*
20,1,$1+$1,$8,$9,$2,$3,0*%
G04 Aperture macros list end*
%TA.AperFunction,SMDPad,CuDef*%
%ADD10R,2.600000X5.560000*%
%TD*%
%TA.AperFunction,SMDPad,CuDef*%
%ADD11C,17.800000*%
%TD*%
%TA.AperFunction,ComponentPad*%
%ADD12R,0.850000X0.850000*%
%TD*%
%TA.AperFunction,ComponentPad*%
%ADD13O,0.850000X0.850000*%
%TD*%
%TA.AperFunction,SMDPad,CuDef*%
%ADD14R,5.600000X5.600000*%
%TD*%
%TA.AperFunction,SMDPad,CuDef*%
%ADD15RoundRect,0.050000X-0.050000X-0.387500X0.050000X-0.387500X0.050000X0.387500X-0.050000X0.387500X0*%
%TD*%
%TA.AperFunction,SMDPad,CuDef*%
%ADD16RoundRect,0.050000X-0.387500X-0.050000X0.387500X-0.050000X0.387500X0.050000X-0.387500X0.050000X0*%
%TD*%
%TA.AperFunction,SMDPad,CuDef*%
%ADD17R,2.500000X1.250000*%
%TD*%
%TA.AperFunction,Conductor*%
%ADD18C,0.500000*%
%TD*%
%TA.AperFunction,Conductor*%
%ADD19C,0.200000*%
%TD*%
G04 APERTURE END LIST*
D10*
%TO.P,BT1,1,+*%
%TO.N,Net-(BT1-+)*%
X90490000Y-59296250D03*
X114300000Y-59296250D03*
D11*
%TO.P,BT1,2,-*%
%TO.N,GND*%
X102395000Y-59296250D03*
%TD*%
D12*
%TO.P,J1,1,Pin_1*%
%TO.N,Net-(J1-Pin_1)*%
X99592500Y-83936250D03*
D13*
%TO.P,J1,2,Pin_2*%
%TO.N,Net-(J1-Pin_2)*%
X100592500Y-83936250D03*
%TO.P,J1,3,Pin_3*%
%TO.N,Net-(J1-Pin_3)*%
X101592500Y-83936250D03*
%TO.P,J1,4,Pin_4*%
%TO.N,Net-(J1-Pin_4)*%
X102592500Y-83936250D03*
%TO.P,J1,5,Pin_5*%
%TO.N,Solenoid*%
X103592500Y-83936250D03*
%TO.P,J1,6,Pin_6*%
%TO.N,GND*%
X104592500Y-83936250D03*
%TD*%
D14*
%TO.P,U1,57,GND_EP*%
%TO.N,unconnected-(U1-GND_EP-Pad57)*%
X104432500Y-75616250D03*
D15*
%TO.P,U1,56,VCCD*%
%TO.N,unconnected-(U1-VCCD-Pad56)*%
X101832500Y-72178750D03*
%TO.P,U1,55,VSSA*%
%TO.N,unconnected-(U1-VSSA-Pad55)*%
X102232500Y-72178750D03*
%TO.P,U1,54,P3.7*%
%TO.N,Solenoid*%
X102632500Y-72178750D03*
%TO.P,U1,53,P3.6*%
%TO.N,unconnected-(U1-P3.6-Pad53)*%
X103032500Y-72178750D03*
%TO.P,U1,52,P3.5*%
%TO.N,unconnected-(U1-P3.5-Pad52)*%
X103432500Y-72178750D03*
%TO.P,U1,51,P3.4*%
%TO.N,unconnected-(U1-P3.4-Pad51)*%
X103832500Y-72178750D03*
%TO.P,U1,50,P3.3*%
%TO.N,unconnected-(U1-P3.3-Pad50)*%
X104232500Y-72178750D03*
%TO.P,U1,49,P3.2*%
%TO.N,unconnected-(U1-P3.2-Pad49)*%
X104632500Y-72178750D03*
%TO.P,U1,48,P3.1*%
%TO.N,unconnected-(U1-P3.1-Pad48)*%
X105032500Y-72178750D03*
%TO.P,U1,47,P3.0*%
%TO.N,unconnected-(U1-P3.0-Pad47)*%
X105432500Y-72178750D03*
%TO.P,U1,46,VDDA*%
%TO.N,unconnected-(U1-VDDA-Pad46)*%
X105832500Y-72178750D03*
%TO.P,U1,45,VREF*%
%TO.N,unconnected-(U1-VREF-Pad45)*%
X106232500Y-72178750D03*
%TO.P,U1,44,P2.7*%
%TO.N,unconnected-(U1-P2.7-Pad44)*%
X106632500Y-72178750D03*
%TO.P,U1,43,P2.6*%
%TO.N,unconnected-(U1-P2.6-Pad43)*%
X107032500Y-72178750D03*
D16*
%TO.P,U1,42,P2.5*%
%TO.N,unconnected-(U1-P2.5-Pad42)*%
X107870000Y-73016250D03*
%TO.P,U1,41,P2.4*%
%TO.N,unconnected-(U1-P2.4-Pad41)*%
X107870000Y-73416250D03*
%TO.P,U1,40,P2.3*%
%TO.N,unconnected-(U1-P2.3-Pad40)*%
X107870000Y-73816250D03*
%TO.P,U1,39,P2.2*%
%TO.N,unconnected-(U1-P2.2-Pad39)*%
X107870000Y-74216250D03*
%TO.P,U1,38,P2.1*%
%TO.N,unconnected-(U1-P2.1-Pad38)*%
X107870000Y-74616250D03*
%TO.P,U1,37,P2.0*%
%TO.N,unconnected-(U1-P2.0-Pad37)*%
X107870000Y-75016250D03*
%TO.P,U1,36,VDDA*%
%TO.N,unconnected-(U1-VDDA-Pad36)*%
X107870000Y-75416250D03*
%TO.P,U1,35,P1.7*%
%TO.N,unconnected-(U1-P1.7-Pad35)*%
X107870000Y-75816250D03*
%TO.P,U1,34,P1.6*%
%TO.N,unconnected-(U1-P1.6-Pad34)*%
X107870000Y-76216250D03*
%TO.P,U1,33,P1.5*%
%TO.N,unconnected-(U1-P1.5-Pad33)*%
X107870000Y-76616250D03*
%TO.P,U1,32,P1.4*%
%TO.N,unconnected-(U1-P1.4-Pad32)*%
X107870000Y-77016250D03*
%TO.P,U1,31,P1.3*%
%TO.N,unconnected-(U1-P1.3-Pad31)*%
X107870000Y-77416250D03*
%TO.P,U1,30,P1.2*%
%TO.N,unconnected-(U1-P1.2-Pad30)*%
X107870000Y-77816250D03*
%TO.P,U1,29,P1.1*%
%TO.N,unconnected-(U1-P1.1-Pad29)*%
X107870000Y-78216250D03*
D15*
%TO.P,U1,28,P1.0*%
%TO.N,unconnected-(U1-P1.0-Pad28)*%
X107032500Y-79053750D03*
%TO.P,U1,27,P0.7*%
%TO.N,Net-(J1-Pin_4)*%
X106632500Y-79053750D03*
%TO.P,U1,26,P0.6*%
%TO.N,Net-(J1-Pin_3)*%
X106232500Y-79053750D03*
%TO.P,U1,25,P0.5*%
%TO.N,unconnected-(U1-P0.5-Pad25)*%
X105832500Y-79053750D03*
%TO.P,U1,24,P0.4*%
%TO.N,unconnected-(U1-P0.4-Pad24)*%
X105432500Y-79053750D03*
%TO.P,U1,23,VDDD*%
%TO.N,unconnected-(U1-VDDD-Pad23)*%
X105032500Y-79053750D03*
%TO.P,U1,22,P0.3*%
%TO.N,unconnected-(U1-P0.3-Pad22)*%
X104632500Y-79053750D03*
%TO.P,U1,21,P0.2*%
%TO.N,Net-(J1-Pin_2)*%
X104232500Y-79053750D03*
%TO.P,U1,20,P0.1*%
%TO.N,unconnected-(U1-P0.1-Pad20)*%
X103832500Y-79053750D03*
%TO.P,U1,19,P0.0*%
%TO.N,Net-(J1-Pin_1)*%
X103432500Y-79053750D03*
%TO.P,U1,18,VDDR*%
%TO.N,unconnected-(U1-VDDR-Pad18)*%
X103032500Y-79053750D03*
%TO.P,U1,17,XTAL24O*%
%TO.N,unconnected-(U1-XTAL24O-Pad17)*%
X102632500Y-79053750D03*
%TO.P,U1,16,XTAL24I*%
%TO.N,unconnected-(U1-XTAL24I-Pad16)*%
X102232500Y-79053750D03*
%TO.P,U1,15,VDDR*%
%TO.N,unconnected-(U1-VDDR-Pad15)*%
X101832500Y-79053750D03*
D16*
%TO.P,U1,14,VDDR*%
%TO.N,unconnected-(U1-VDDR-Pad14)*%
X100995000Y-78216250D03*
%TO.P,U1,13,GANT2*%
%TO.N,unconnected-(U1-GANT2-Pad13)*%
X100995000Y-77816250D03*
%TO.P,U1,12,ANT*%
%TO.N,unconnected-(U1-ANT-Pad12)*%
X100995000Y-77416250D03*
%TO.P,U1,11,GANT1*%
%TO.N,unconnected-(U1-GANT1-Pad11)*%
X100995000Y-77016250D03*
%TO.P,U1,10,VDDR*%
%TO.N,unconnected-(U1-VDDR-Pad10)*%
X100995000Y-76616250D03*
%TO.P,U1,9,VSSD*%
%TO.N,GND*%
X100995000Y-76216250D03*
%TO.P,U1,8,P5.1*%
%TO.N,unconnected-(U1-P5.1-Pad8)*%
X100995000Y-75816250D03*
%TO.P,U1,7,P5.0*%
%TO.N,unconnected-(U1-P5.0-Pad7)*%
X100995000Y-75416250D03*
%TO.P,U1,6,P4.1*%
%TO.N,unconnected-(U1-P4.1-Pad6)*%
X100995000Y-75016250D03*
%TO.P,U1,5,P4.0*%
%TO.N,unconnected-(U1-P4.0-Pad5)*%
X100995000Y-74616250D03*
%TO.P,U1,4,XRES*%
%TO.N,unconnected-(U1-XRES-Pad4)*%
X100995000Y-74216250D03*
%TO.P,U1,3,XTAL32I/P6.1*%
%TO.N,unconnected-(U1-XTAL32I{slash}P6.1-Pad3)*%
X100995000Y-73816250D03*
%TO.P,U1,2,XTAL32O/P6.0*%
%TO.N,unconnected-(U1-XTAL32O{slash}P6.0-Pad2)*%
X100995000Y-73416250D03*
%TO.P,U1,1,VDDD*%
%TO.N,Net-(SW4-A)*%
X100995000Y-73016250D03*
%TD*%
D17*
%TO.P,SW4,3,C*%
%TO.N,unconnected-(SW4-C-Pad3)*%
X92222500Y-73816250D03*
%TO.P,SW4,2,B*%
%TO.N,Net-(BT1-+)*%
X92222500Y-76316250D03*
%TO.P,SW4,1,A*%
%TO.N,Net-(SW4-A)*%
X92222500Y-78816250D03*
%TD*%
D18*
%TO.N,Net-(BT1-+)*%
X92432500Y-48376250D02*
X110212500Y-48376250D01*
X90490000Y-59296250D02*
X90490000Y-50318750D01*
X114300000Y-52463750D02*
X114300000Y-59296250D01*
X90490000Y-50318750D02*
X92432500Y-48376250D01*
X110212500Y-48376250D02*
X114300000Y-52463750D01*
D19*
%TO.N,Net-(SW4-A)*%
X92222500Y-78816250D02*
X98022500Y-73016250D01*
X98022500Y-73016250D02*
X100995000Y-73016250D01*
%TO.N,Solenoid*%
X110212500Y-78856250D02*
X110212500Y-73776250D01*
X105857500Y-83211250D02*
X110212500Y-78856250D01*
X103592500Y-83335210D02*
X103716460Y-83211250D01*
X102632500Y-71646275D02*
X102632500Y-72178750D01*
X103592500Y-83936250D02*
X103592500Y-83335210D01*
X103716460Y-83211250D02*
X105857500Y-83211250D01*
X110212500Y-73776250D02*
X107877500Y-71441250D01*
X107877500Y-71441250D02*
X102837525Y-71441250D01*
X102837525Y-71441250D02*
X102632500Y-71646275D01*
%TO.N,Net-(J1-Pin_4)*%
X102592500Y-83936250D02*
X102592500Y-83476631D01*
X102592500Y-83476631D02*
X103632691Y-82436440D01*
X106632500Y-80461936D02*
X106632500Y-79053750D01*
X103632691Y-82436440D02*
X104657996Y-82436440D01*
X104657996Y-82436440D02*
X106632500Y-80461936D01*
%TO.N,Net-(J1-Pin_3)*%
X104107195Y-81396250D02*
X105132500Y-81396250D01*
X101592500Y-83910945D02*
X104107195Y-81396250D01*
X106232500Y-80296250D02*
X106232500Y-79053750D01*
X101592500Y-83936250D02*
X101592500Y-83910945D01*
X105132500Y-81396250D02*
X106232500Y-80296250D01*
%TO.N,Net-(J1-Pin_2)*%
X100592500Y-83936250D02*
X100592500Y-83910945D01*
X100592500Y-83910945D02*
X104232500Y-80270945D01*
X104232500Y-80270945D02*
X104232500Y-79053750D01*
%TO.N,Net-(J1-Pin_1)*%
X99592500Y-83936250D02*
X99592500Y-83426225D01*
X99592500Y-83426225D02*
X103432500Y-79586225D01*
X103432500Y-79586225D02*
X103432500Y-79053750D01*
D18*
%TO.N,Net-(BT1-+)*%
X90490000Y-59296250D02*
X90490000Y-74858750D01*
X90490000Y-74858750D02*
X91947500Y-76316250D01*
X91947500Y-76316250D02*
X92222500Y-76316250D01*
%TD*%
%TA.AperFunction,Conductor*%
%TO.N,GND*%
G36*
X117275039Y-46356435D02*
G01*
X117320794Y-46409239D01*
X117332000Y-46460750D01*
X117332000Y-85851750D01*
X117312315Y-85918789D01*
X117259511Y-85964544D01*
X117208000Y-85975750D01*
X87977000Y-85975750D01*
X87909961Y-85956065D01*
X87864206Y-85903261D01*
X87853000Y-85851750D01*
X87853000Y-62124120D01*
X88689500Y-62124120D01*
X88689501Y-62124126D01*
X88695908Y-62183733D01*
X88746202Y-62318578D01*
X88746206Y-62318585D01*
X88832452Y-62433794D01*
X88832455Y-62433797D01*
X88947664Y-62520043D01*
X88947671Y-62520047D01*
X88992618Y-62536811D01*
X89082517Y-62570341D01*
X89142127Y-62576750D01*
X89615500Y-62576749D01*
X89682539Y-62596433D01*
X89728294Y-62649237D01*
X89739500Y-62700749D01*
X89739500Y-74795044D01*
X89738191Y-74813013D01*
X89734710Y-74836776D01*
X89739263Y-74888813D01*
X89739499Y-74894212D01*
X89739499Y-74902453D01*
X89743306Y-74935025D01*
X89750000Y-75011541D01*
X89751461Y-75018617D01*
X89751403Y-75018628D01*
X89753034Y-75025987D01*
X89753092Y-75025974D01*
X89754757Y-75033000D01*
X89781025Y-75105174D01*
X89805185Y-75178081D01*
X89808236Y-75184624D01*
X89808182Y-75184648D01*
X89811470Y-75191438D01*
X89811521Y-75191413D01*
X89814761Y-75197863D01*
X89814762Y-75197864D01*
X89814763Y-75197867D01*
X89847378Y-75247456D01*
X89856965Y-75262033D01*
X89897287Y-75327405D01*
X89901766Y-75333069D01*
X89901719Y-75333106D01*
X89906482Y-75338952D01*
X89906528Y-75338914D01*
X89911173Y-75344450D01*
X89967018Y-75397136D01*
X90213261Y-75643379D01*
X90435681Y-75865798D01*
X90469166Y-75927121D01*
X90472000Y-75953479D01*
X90472000Y-76989120D01*
X90472001Y-76989126D01*
X90478408Y-77048733D01*
X90528702Y-77183578D01*
X90528706Y-77183585D01*
X90614952Y-77298794D01*
X90614955Y-77298797D01*
X90730164Y-77385043D01*
X90730171Y-77385047D01*
X90865017Y-77435341D01*
X90865016Y-77435341D01*
X90871944Y-77436085D01*
X90924627Y-77441750D01*
X92448402Y-77441749D01*
X92515441Y-77461434D01*
X92561196Y-77514237D01*
X92571140Y-77583396D01*
X92542115Y-77646952D01*
X92536083Y-77653430D01*
X92535082Y-77654431D01*
X92473759Y-77687916D01*
X92447401Y-77690750D01*
X90924629Y-77690750D01*
X90924623Y-77690751D01*
X90865016Y-77697158D01*
X90730171Y-77747452D01*
X90730164Y-77747456D01*
X90614955Y-77833702D01*
X90614952Y-77833705D01*
X90528706Y-77948914D01*
X90528702Y-77948921D01*
X90478408Y-78083767D01*
X90474174Y-78123153D01*
X90472001Y-78143373D01*
X90472000Y-78143385D01*
X90472000Y-79489120D01*
X90472001Y-79489126D01*
X90478408Y-79548733D01*
X90528702Y-79683578D01*
X90528706Y-79683585D01*
X90614952Y-79798794D01*
X90614955Y-79798797D01*
X90730164Y-79885043D01*
X90730171Y-79885047D01*
X90865017Y-79935341D01*
X90865016Y-79935341D01*
X90871944Y-79936085D01*
X90924627Y-79941750D01*
X93520372Y-79941749D01*
X93579983Y-79935341D01*
X93714831Y-79885046D01*
X93826694Y-79801305D01*
X94272000Y-79801305D01*
X94312710Y-79966476D01*
X94391763Y-80117099D01*
X94391766Y-80117102D01*
X94504571Y-80244433D01*
X94594818Y-80306726D01*
X94644568Y-80341067D01*
X94644569Y-80341067D01*
X94644570Y-80341068D01*
X94803628Y-80401390D01*
X94879528Y-80410606D01*
X94930126Y-80416750D01*
X94930128Y-80416750D01*
X95014874Y-80416750D01*
X95057038Y-80411630D01*
X95141372Y-80401390D01*
X95300430Y-80341068D01*
X95440429Y-80244433D01*
X95553234Y-80117102D01*
X95632290Y-79966475D01*
X95673000Y-79801306D01*
X95673000Y-79631194D01*
X95632290Y-79466025D01*
X95632289Y-79466023D01*
X95553236Y-79315400D01*
X95525887Y-79284530D01*
X95440429Y-79188067D01*
X95390677Y-79153725D01*
X95300431Y-79091432D01*
X95141374Y-79031110D01*
X95141368Y-79031109D01*
X95014874Y-79015750D01*
X95014872Y-79015750D01*
X94930128Y-79015750D01*
X94930126Y-79015750D01*
X94803631Y-79031109D01*
X94803625Y-79031110D01*
X94644568Y-79091432D01*
X94504572Y-79188066D01*
X94391763Y-79315400D01*
X94312710Y-79466023D01*
X94272000Y-79631194D01*
X94272000Y-79801305D01*
X93826694Y-79801305D01*
X93830046Y-79798796D01*
X93916296Y-79683581D01*
X93966591Y-79548733D01*
X93973000Y-79489123D01*
X93972999Y-78143378D01*
X93966591Y-78083767D01*
X93950328Y-78040166D01*
X93945345Y-77970476D01*
X93978826Y-77909157D01*
X98234915Y-73653069D01*
X98296239Y-73619584D01*
X98322597Y-73616750D01*
X99933000Y-73616750D01*
X100000039Y-73636435D01*
X100045794Y-73689239D01*
X100057000Y-73740749D01*
X100057000Y-73909352D01*
X100062722Y-73957004D01*
X100068061Y-74001467D01*
X100068061Y-74031033D01*
X100065785Y-74049989D01*
X100057000Y-74123148D01*
X100057000Y-74309352D01*
X100062722Y-74357004D01*
X100068061Y-74401467D01*
X100068061Y-74431033D01*
X100062218Y-74479690D01*
X100057000Y-74523148D01*
X100057000Y-74709352D01*
X100062722Y-74757004D01*
X100068061Y-74801467D01*
X100068061Y-74831033D01*
X100062218Y-74879690D01*
X100057000Y-74923148D01*
X100057000Y-75109352D01*
X100062293Y-75153430D01*
X100068061Y-75201467D01*
X100068061Y-75231033D01*
X100064339Y-75262033D01*
X100057000Y-75323148D01*
X100057000Y-75509352D01*
X100062722Y-75557004D01*
X100068061Y-75601467D01*
X100068061Y-75631033D01*
X100066579Y-75643378D01*
X100057000Y-75723148D01*
X100057000Y-75909352D01*
X100057937Y-75917152D01*
X100068314Y-76003571D01*
X100068314Y-76033137D01*
X100057500Y-76123195D01*
X100057500Y-76309304D01*
X100068314Y-76399363D01*
X100068314Y-76428929D01*
X100067623Y-76434686D01*
X100057000Y-76523148D01*
X100057000Y-76709352D01*
X100062722Y-76757004D01*
X100068061Y-76801467D01*
X100068061Y-76831033D01*
X100062218Y-76879690D01*
X100057000Y-76923148D01*
X100057000Y-77109352D01*
X100062722Y-77157004D01*
X100068061Y-77201467D01*
X100068061Y-77231033D01*
X100062218Y-77279690D01*
X100057000Y-77323148D01*
X100057000Y-77509352D01*
X100057587Y-77514237D01*
X100068061Y-77601467D01*
X100068061Y-77631033D01*
X100066150Y-77646952D01*
X100057000Y-77723148D01*
X100057000Y-77909352D01*
X100061752Y-77948921D01*
X100068061Y-78001467D01*
X100068061Y-78031033D01*
X100062218Y-78079690D01*
X100057000Y-78123148D01*
X100057000Y-78309352D01*
X100062626Y-78356204D01*
X100067622Y-78397811D01*
X100123139Y-78538593D01*
X100214577Y-78659172D01*
X100335156Y-78750610D01*
X100335157Y-78750610D01*
X100335158Y-78750611D01*
X100475936Y-78806127D01*
X100564398Y-78816750D01*
X101108000Y-78816750D01*
X101175039Y-78836435D01*
X101220794Y-78889239D01*
X101232000Y-78940749D01*
X101232000Y-79484352D01*
X101237626Y-79531204D01*
X101242622Y-79572811D01*
X101298139Y-79713593D01*
X101389577Y-79834172D01*
X101510156Y-79925610D01*
X101510157Y-79925610D01*
X101510158Y-79925611D01*
X101650936Y-79981127D01*
X101739398Y-79991750D01*
X101739403Y-79991750D01*
X101878378Y-79991750D01*
X101945417Y-80011435D01*
X101991172Y-80064239D01*
X102001116Y-80133397D01*
X101972091Y-80196953D01*
X101966059Y-80203431D01*
X99198596Y-82970892D01*
X99192496Y-82976243D01*
X99179697Y-82986065D01*
X99117458Y-83010984D01*
X99060016Y-83017159D01*
X98925171Y-83067452D01*
X98925164Y-83067456D01*
X98809955Y-83153702D01*
X98809952Y-83153705D01*
X98723706Y-83268914D01*
X98723702Y-83268921D01*
X98673408Y-83403767D01*
X98667001Y-83463366D01*
X98667000Y-83463385D01*
X98667000Y-84409120D01*
X98667001Y-84409126D01*
X98673408Y-84468733D01*
X98723702Y-84603578D01*
X98723706Y-84603585D01*
X98809952Y-84718794D01*
X98809955Y-84718797D01*
X98925164Y-84805043D01*
X98925171Y-84805047D01*
X99060017Y-84855341D01*
X99060016Y-84855341D01*
X99066944Y-84856085D01*
X99119627Y-84861750D01*
X100065372Y-84861749D01*
X100124983Y-84855341D01*
X100217030Y-84821009D01*
X100286718Y-84816026D01*
X100298539Y-84819928D01*
X100298746Y-84819292D01*
X100304926Y-84821299D01*
X100304929Y-84821301D01*
X100495226Y-84861750D01*
X100689774Y-84861750D01*
X100880071Y-84821301D01*
X101042066Y-84749176D01*
X101111313Y-84739892D01*
X101142929Y-84749174D01*
X101304929Y-84821301D01*
X101495226Y-84861750D01*
X101689774Y-84861750D01*
X101880066Y-84821302D01*
X101880065Y-84821302D01*
X101880071Y-84821301D01*
X102042069Y-84749175D01*
X102111315Y-84739892D01*
X102142925Y-84749172D01*
X102304929Y-84821301D01*
X102304932Y-84821301D01*
X102304933Y-84821302D01*
X102495226Y-84861750D01*
X102689774Y-84861750D01*
X102880066Y-84821302D01*
X102880065Y-84821302D01*
X102880071Y-84821301D01*
X103042069Y-84749175D01*
X103111315Y-84739892D01*
X103142925Y-84749172D01*
X103304929Y-84821301D01*
X103304932Y-84821301D01*
X103304933Y-84821302D01*
X103495226Y-84861750D01*
X103689774Y-84861750D01*
X103880066Y-84821302D01*
X103880065Y-84821302D01*
X103880071Y-84821301D01*
X104042684Y-84748901D01*
X104111929Y-84739618D01*
X104143551Y-84748903D01*
X104305085Y-84820823D01*
X104342499Y-84828774D01*
X104342500Y-84828774D01*
X104342500Y-84521439D01*
X104359113Y-84459439D01*
X104442642Y-84314761D01*
X104442643Y-84314760D01*
X104442709Y-84314557D01*
X104490153Y-84168536D01*
X104494955Y-84171745D01*
X104567876Y-84186250D01*
X104617124Y-84186250D01*
X104842500Y-84186250D01*
X104842500Y-84828774D01*
X104879912Y-84820823D01*
X105057549Y-84741734D01*
X105214857Y-84627442D01*
X105214860Y-84627440D01*
X105344963Y-84482944D01*
X105442182Y-84314557D01*
X105442183Y-84314556D01*
X105483872Y-84186250D01*
X104842500Y-84186250D01*
X104617124Y-84186250D01*
X104690045Y-84171745D01*
X104772740Y-84116490D01*
X104827995Y-84033795D01*
X104847398Y-83936250D01*
X104827995Y-83838705D01*
X104809984Y-83811750D01*
X105814072Y-83811750D01*
X105822170Y-83812280D01*
X105857500Y-83816932D01*
X105857501Y-83816932D01*
X105909754Y-83810052D01*
X106014262Y-83796294D01*
X106160341Y-83735786D01*
X106169099Y-83729066D01*
X106285782Y-83639532D01*
X106307483Y-83611249D01*
X106312811Y-83605172D01*
X110606422Y-79311561D01*
X110612499Y-79306233D01*
X110640782Y-79284532D01*
X110737036Y-79159091D01*
X110797544Y-79013012D01*
X110813000Y-78895611D01*
X110818182Y-78856250D01*
X110813530Y-78820919D01*
X110813000Y-78812821D01*
X110813000Y-73819677D01*
X110813531Y-73811576D01*
X110818182Y-73776250D01*
X110818182Y-73776248D01*
X110797544Y-73619489D01*
X110797544Y-73619488D01*
X110737036Y-73473409D01*
X110714802Y-73444433D01*
X110640782Y-73347968D01*
X110612505Y-73326270D01*
X110606404Y-73320919D01*
X109501235Y-72215750D01*
X108332820Y-71047335D01*
X108327479Y-71041244D01*
X108305782Y-71012968D01*
X108180341Y-70916714D01*
X108034262Y-70856206D01*
X108034260Y-70856205D01*
X107916861Y-70840750D01*
X107877500Y-70835568D01*
X107842170Y-70840219D01*
X107834072Y-70840750D01*
X102880953Y-70840750D01*
X102872854Y-70840219D01*
X102837525Y-70835568D01*
X102798164Y-70840750D01*
X102680764Y-70856205D01*
X102680762Y-70856206D01*
X102534682Y-70916714D01*
X102409244Y-71012966D01*
X102387544Y-71041244D01*
X102382193Y-71047346D01*
X102238596Y-71190943D01*
X102232493Y-71196295D01*
X102207685Y-71215332D01*
X102142516Y-71240529D01*
X102139618Y-71240737D01*
X102139405Y-71240749D01*
X102047282Y-71251811D01*
X102017716Y-71251811D01*
X101973587Y-71246512D01*
X101925602Y-71240750D01*
X101739398Y-71240750D01*
X101700353Y-71245438D01*
X101650938Y-71251372D01*
X101510156Y-71306889D01*
X101389577Y-71398327D01*
X101298139Y-71518906D01*
X101242622Y-71659688D01*
X101236688Y-71709103D01*
X101232000Y-71748148D01*
X101232000Y-71748153D01*
X101232000Y-72291750D01*
X101212315Y-72358789D01*
X101159511Y-72404544D01*
X101108000Y-72415750D01*
X98065928Y-72415750D01*
X98057829Y-72415219D01*
X98022500Y-72410568D01*
X98022499Y-72410568D01*
X97865739Y-72431205D01*
X97865737Y-72431206D01*
X97719657Y-72491714D01*
X97594219Y-72587966D01*
X97572519Y-72616244D01*
X97567168Y-72622346D01*
X94184680Y-76004833D01*
X94123357Y-76038318D01*
X94053665Y-76033334D01*
X93997732Y-75991462D01*
X93973315Y-75925998D01*
X93972999Y-75917152D01*
X93972999Y-75643379D01*
X93972998Y-75643373D01*
X93972064Y-75634686D01*
X93966591Y-75583767D01*
X93916296Y-75448919D01*
X93916295Y-75448918D01*
X93916293Y-75448914D01*
X93830047Y-75333705D01*
X93830044Y-75333702D01*
X93714835Y-75247456D01*
X93714828Y-75247452D01*
X93579982Y-75197158D01*
X93579983Y-75197158D01*
X93520383Y-75190751D01*
X93520381Y-75190750D01*
X93520373Y-75190750D01*
X93520365Y-75190750D01*
X91934730Y-75190750D01*
X91867691Y-75171065D01*
X91847049Y-75154431D01*
X91846048Y-75153430D01*
X91812563Y-75092107D01*
X91817547Y-75022415D01*
X91859419Y-74966482D01*
X91924883Y-74942065D01*
X91933729Y-74941749D01*
X93520371Y-74941749D01*
X93520372Y-74941749D01*
X93579983Y-74935341D01*
X93714831Y-74885046D01*
X93830046Y-74798796D01*
X93916296Y-74683581D01*
X93966591Y-74548733D01*
X93973000Y-74489123D01*
X93972999Y-73143378D01*
X93966591Y-73083767D01*
X93935835Y-73001305D01*
X94272000Y-73001305D01*
X94312710Y-73166476D01*
X94391763Y-73317099D01*
X94397122Y-73323148D01*
X94504571Y-73444433D01*
X94593290Y-73505672D01*
X94644568Y-73541067D01*
X94644569Y-73541067D01*
X94644570Y-73541068D01*
X94745858Y-73579480D01*
X94794198Y-73597814D01*
X94803628Y-73601390D01*
X94879528Y-73610606D01*
X94930126Y-73616750D01*
X94930128Y-73616750D01*
X95014874Y-73616750D01*
X95057038Y-73611630D01*
X95141372Y-73601390D01*
X95300430Y-73541068D01*
X95440429Y-73444433D01*
X95553234Y-73317102D01*
X95632290Y-73166475D01*
X95673000Y-73001306D01*
X95673000Y-72831194D01*
X95632290Y-72666025D01*
X95632289Y-72666023D01*
X95553236Y-72515400D01*
X95532252Y-72491714D01*
X95440429Y-72388067D01*
X95390677Y-72353725D01*
X95300431Y-72291432D01*
X95141374Y-72231110D01*
X95141368Y-72231109D01*
X95014874Y-72215750D01*
X95014872Y-72215750D01*
X94930128Y-72215750D01*
X94930126Y-72215750D01*
X94803631Y-72231109D01*
X94803625Y-72231110D01*
X94644568Y-72291432D01*
X94504572Y-72388066D01*
X94391763Y-72515400D01*
X94312710Y-72666023D01*
X94272000Y-72831194D01*
X94272000Y-73001305D01*
X93935835Y-73001305D01*
X93916296Y-72948919D01*
X93916295Y-72948918D01*
X93916293Y-72948914D01*
X93830047Y-72833705D01*
X93830044Y-72833702D01*
X93714835Y-72747456D01*
X93714828Y-72747452D01*
X93579982Y-72697158D01*
X93579983Y-72697158D01*
X93520383Y-72690751D01*
X93520381Y-72690750D01*
X93520373Y-72690750D01*
X93520365Y-72690750D01*
X91364500Y-72690750D01*
X91297461Y-72671065D01*
X91251706Y-72618261D01*
X91240500Y-72566750D01*
X91240500Y-66117604D01*
X95927198Y-66117604D01*
X96193832Y-66367332D01*
X96193832Y-66367333D01*
X96669577Y-66757767D01*
X96669576Y-66757767D01*
X97169848Y-67116256D01*
X97692484Y-67441252D01*
X97692484Y-67441251D01*
X98235258Y-67731370D01*
X98795851Y-67985371D01*
X99371856Y-68202164D01*
X99371857Y-68202164D01*
X99960792Y-68380816D01*
X100560173Y-68520572D01*
X101167399Y-68620825D01*
X101167400Y-68620825D01*
X101779874Y-68681149D01*
X102395000Y-68701286D01*
X103010126Y-68681149D01*
X103622600Y-68620825D01*
X103622601Y-68620825D01*
X104229827Y-68520572D01*
X104829208Y-68380816D01*
X105418143Y-68202164D01*
X105418144Y-68202164D01*
X105994149Y-67985371D01*
X106554742Y-67731370D01*
X107097516Y-67441251D01*
X107097516Y-67441252D01*
X107620152Y-67116256D01*
X108120424Y-66757767D01*
X108120423Y-66757767D01*
X108596175Y-66367326D01*
X108596176Y-66367326D01*
X108862800Y-66117604D01*
X102395000Y-59649803D01*
X95927198Y-66117604D01*
X91240500Y-66117604D01*
X91240500Y-62700749D01*
X91260185Y-62633710D01*
X91312989Y-62587955D01*
X91364500Y-62576749D01*
X91837871Y-62576749D01*
X91837872Y-62576749D01*
X91897483Y-62570341D01*
X92032331Y-62520046D01*
X92147546Y-62433796D01*
X92233796Y-62318581D01*
X92284091Y-62183733D01*
X92290500Y-62124123D01*
X92290499Y-59296250D01*
X92989964Y-59296250D01*
X93010101Y-59911376D01*
X93070425Y-60523850D01*
X93070425Y-60523851D01*
X93170678Y-61131077D01*
X93310434Y-61730458D01*
X93489086Y-62319393D01*
X93489086Y-62319394D01*
X93705879Y-62895399D01*
X93959880Y-63455992D01*
X94249999Y-63998766D01*
X94249998Y-63998766D01*
X94574994Y-64521402D01*
X94933483Y-65021674D01*
X94933483Y-65021673D01*
X95323917Y-65497418D01*
X95323918Y-65497418D01*
X95573644Y-65764049D01*
X95573645Y-65764050D01*
X102041446Y-59296249D01*
X102748553Y-59296249D01*
X109216354Y-65764050D01*
X109466076Y-65497426D01*
X109466076Y-65497425D01*
X109856517Y-65021673D01*
X109856517Y-65021674D01*
X110215006Y-64521402D01*
X110540002Y-63998766D01*
X110540001Y-63998766D01*
X110830120Y-63455992D01*
X111084121Y-62895399D01*
X111300914Y-62319394D01*
X111300914Y-62319393D01*
X111479566Y-61730458D01*
X111619322Y-61131077D01*
X111719575Y-60523851D01*
X111719575Y-60523850D01*
X111779899Y-59911376D01*
X111800036Y-59296250D01*
X111779899Y-58681124D01*
X111719575Y-58068650D01*
X111719575Y-58068649D01*
X111619322Y-57461423D01*
X111479566Y-56862042D01*
X111300914Y-56273107D01*
X111300914Y-56273106D01*
X111084121Y-55697101D01*
X110830120Y-55136508D01*
X110540001Y-54593734D01*
X110540002Y-54593734D01*
X110215006Y-54071098D01*
X109856517Y-53570826D01*
X109856517Y-53570827D01*
X109466083Y-53095082D01*
X109466082Y-53095082D01*
X109216354Y-52828449D01*
X109216353Y-52828448D01*
X102748553Y-59296249D01*
X102041446Y-59296249D01*
X102041446Y-59296248D01*
X95573645Y-52828449D01*
X95323918Y-53095082D01*
X95323917Y-53095082D01*
X94933483Y-53570827D01*
X94933483Y-53570826D01*
X94574994Y-54071098D01*
X94249998Y-54593734D01*
X94249999Y-54593734D01*
X93959880Y-55136508D01*
X93705879Y-55697101D01*
X93489086Y-56273106D01*
X93489086Y-56273107D01*
X93310434Y-56862042D01*
X93170678Y-57461423D01*
X93070425Y-58068649D01*
X93070425Y-58068650D01*
X93010101Y-58681124D01*
X92989964Y-59296250D01*
X92290499Y-59296250D01*
X92290499Y-56468378D01*
X92284091Y-56408767D01*
X92233796Y-56273919D01*
X92233795Y-56273918D01*
X92233793Y-56273914D01*
X92147547Y-56158705D01*
X92147544Y-56158702D01*
X92032335Y-56072456D01*
X92032328Y-56072452D01*
X91897482Y-56022158D01*
X91897483Y-56022158D01*
X91837883Y-56015751D01*
X91837881Y-56015750D01*
X91837873Y-56015750D01*
X91837865Y-56015750D01*
X91364500Y-56015750D01*
X91297461Y-55996065D01*
X91251706Y-55943261D01*
X91240500Y-55891750D01*
X91240500Y-52474895D01*
X95927199Y-52474895D01*
X102394999Y-58942695D01*
X108862800Y-52474895D01*
X108862799Y-52474894D01*
X108596168Y-52225168D01*
X108596168Y-52225167D01*
X108120423Y-51834733D01*
X108120424Y-51834733D01*
X107620152Y-51476244D01*
X107097516Y-51151248D01*
X107097516Y-51151249D01*
X106554742Y-50861130D01*
X105994149Y-50607129D01*
X105418144Y-50390336D01*
X105418143Y-50390336D01*
X104829208Y-50211684D01*
X104229827Y-50071928D01*
X103622601Y-49971675D01*
X103622600Y-49971675D01*
X103010126Y-49911351D01*
X102395000Y-49891214D01*
X101779874Y-49911351D01*
X101167400Y-49971675D01*
X101167399Y-49971675D01*
X100560173Y-50071928D01*
X99960792Y-50211684D01*
X99371857Y-50390336D01*
X99371856Y-50390336D01*
X98795851Y-50607129D01*
X98235258Y-50861130D01*
X97692484Y-51151249D01*
X97692484Y-51151248D01*
X97169848Y-51476244D01*
X96669576Y-51834733D01*
X96669577Y-51834733D01*
X96193832Y-52225167D01*
X96193832Y-52225168D01*
X95927199Y-52474895D01*
X91240500Y-52474895D01*
X91240500Y-50680980D01*
X91260185Y-50613941D01*
X91276819Y-50593299D01*
X92707049Y-49163069D01*
X92768372Y-49129584D01*
X92794730Y-49126750D01*
X109850270Y-49126750D01*
X109917309Y-49146435D01*
X109937950Y-49163069D01*
X113513182Y-52738300D01*
X113546666Y-52799621D01*
X113549500Y-52825979D01*
X113549500Y-55891750D01*
X113529815Y-55958789D01*
X113477011Y-56004544D01*
X113425500Y-56015750D01*
X112952129Y-56015750D01*
X112952123Y-56015751D01*
X112892516Y-56022158D01*
X112757671Y-56072452D01*
X112757664Y-56072456D01*
X112642455Y-56158702D01*
X112642452Y-56158705D01*
X112556206Y-56273914D01*
X112556202Y-56273921D01*
X112505908Y-56408767D01*
X112499501Y-56468366D01*
X112499501Y-56468373D01*
X112499500Y-56468385D01*
X112499500Y-62124120D01*
X112499501Y-62124126D01*
X112505908Y-62183733D01*
X112556202Y-62318578D01*
X112556206Y-62318585D01*
X112642452Y-62433794D01*
X112642455Y-62433797D01*
X112757664Y-62520043D01*
X112757671Y-62520047D01*
X112892517Y-62570341D01*
X112892516Y-62570341D01*
X112899444Y-62571085D01*
X112952127Y-62576750D01*
X115647872Y-62576749D01*
X115707483Y-62570341D01*
X115842331Y-62520046D01*
X115957546Y-62433796D01*
X116043796Y-62318581D01*
X116094091Y-62183733D01*
X116100500Y-62124123D01*
X116100499Y-56468378D01*
X116094091Y-56408767D01*
X116043796Y-56273919D01*
X116043795Y-56273918D01*
X116043793Y-56273914D01*
X115957547Y-56158705D01*
X115957544Y-56158702D01*
X115842335Y-56072456D01*
X115842328Y-56072452D01*
X115707482Y-56022158D01*
X115707483Y-56022158D01*
X115647883Y-56015751D01*
X115647881Y-56015750D01*
X115647873Y-56015750D01*
X115647865Y-56015750D01*
X115174500Y-56015750D01*
X115107461Y-55996065D01*
X115061706Y-55943261D01*
X115050500Y-55891750D01*
X115050500Y-52527455D01*
X115051809Y-52509485D01*
X115052129Y-52507297D01*
X115055289Y-52485727D01*
X115054341Y-52474895D01*
X115050736Y-52433684D01*
X115050500Y-52428278D01*
X115050500Y-52420047D01*
X115050500Y-52420041D01*
X115046693Y-52387474D01*
X115039999Y-52310953D01*
X115039999Y-52310951D01*
X115038539Y-52303879D01*
X115038597Y-52303866D01*
X115036965Y-52296507D01*
X115036906Y-52296522D01*
X115035242Y-52289503D01*
X115035241Y-52289495D01*
X115008974Y-52217326D01*
X114984814Y-52144416D01*
X114984809Y-52144409D01*
X114981760Y-52137868D01*
X114981815Y-52137841D01*
X114978533Y-52131063D01*
X114978480Y-52131090D01*
X114975235Y-52124630D01*
X114933028Y-52060458D01*
X114892710Y-51995092D01*
X114888234Y-51989432D01*
X114888281Y-51989394D01*
X114883519Y-51983549D01*
X114883474Y-51983588D01*
X114878834Y-51978058D01*
X114822964Y-51925346D01*
X110788229Y-47890611D01*
X110776449Y-47876980D01*
X110768982Y-47866951D01*
X110762112Y-47857722D01*
X110762110Y-47857720D01*
X110722087Y-47824136D01*
X110718112Y-47820494D01*
X110715190Y-47817572D01*
X110712280Y-47814661D01*
X110686540Y-47794309D01*
X110627709Y-47744944D01*
X110621680Y-47740979D01*
X110621712Y-47740930D01*
X110615353Y-47736878D01*
X110615322Y-47736929D01*
X110609180Y-47733141D01*
X110609178Y-47733140D01*
X110609177Y-47733139D01*
X110569974Y-47714858D01*
X110539558Y-47700674D01*
X110505394Y-47683517D01*
X110470933Y-47666210D01*
X110470931Y-47666209D01*
X110470930Y-47666209D01*
X110464145Y-47663739D01*
X110464165Y-47663683D01*
X110457049Y-47661209D01*
X110457031Y-47661265D01*
X110450171Y-47658992D01*
X110422341Y-47653246D01*
X110374934Y-47643457D01*
X110325972Y-47631853D01*
X110300219Y-47625749D01*
X110293047Y-47624911D01*
X110293053Y-47624851D01*
X110285555Y-47624085D01*
X110285550Y-47624145D01*
X110278360Y-47623515D01*
X110201583Y-47625750D01*
X92496205Y-47625750D01*
X92478235Y-47624441D01*
X92454472Y-47620960D01*
X92410012Y-47624851D01*
X92402431Y-47625514D01*
X92397030Y-47625750D01*
X92388789Y-47625750D01*
X92367079Y-47628287D01*
X92356224Y-47629556D01*
X92340919Y-47630894D01*
X92279699Y-47636251D01*
X92272632Y-47637710D01*
X92272620Y-47637654D01*
X92265263Y-47639285D01*
X92265277Y-47639342D01*
X92258243Y-47641009D01*
X92186075Y-47667275D01*
X92113175Y-47691431D01*
X92106626Y-47694486D01*
X92106601Y-47694433D01*
X92099808Y-47697721D01*
X92099834Y-47697773D01*
X92093380Y-47701014D01*
X92029208Y-47743221D01*
X91963847Y-47783535D01*
X91958183Y-47788015D01*
X91958147Y-47787969D01*
X91952298Y-47792734D01*
X91952335Y-47792778D01*
X91946810Y-47797414D01*
X91894097Y-47853285D01*
X90004358Y-49743022D01*
X89990729Y-49754801D01*
X89971468Y-49769140D01*
X89937898Y-49809147D01*
X89934253Y-49813126D01*
X89928409Y-49818972D01*
X89908059Y-49844709D01*
X89858695Y-49903539D01*
X89854729Y-49909569D01*
X89854682Y-49909538D01*
X89850630Y-49915897D01*
X89850679Y-49915927D01*
X89846889Y-49922071D01*
X89814424Y-49991691D01*
X89779960Y-50060316D01*
X89777488Y-50067107D01*
X89777432Y-50067086D01*
X89774960Y-50074200D01*
X89775015Y-50074219D01*
X89772742Y-50081077D01*
X89764974Y-50118695D01*
X89757207Y-50156315D01*
X89744085Y-50211684D01*
X89739498Y-50231036D01*
X89738661Y-50238204D01*
X89738601Y-50238197D01*
X89737835Y-50245695D01*
X89737895Y-50245701D01*
X89737265Y-50252890D01*
X89739500Y-50329666D01*
X89739499Y-55891750D01*
X89719814Y-55958789D01*
X89667010Y-56004544D01*
X89615499Y-56015750D01*
X89142129Y-56015750D01*
X89142123Y-56015751D01*
X89082516Y-56022158D01*
X88947671Y-56072452D01*
X88947664Y-56072456D01*
X88832455Y-56158702D01*
X88832452Y-56158705D01*
X88746206Y-56273914D01*
X88746202Y-56273921D01*
X88695908Y-56408767D01*
X88689501Y-56468366D01*
X88689501Y-56468373D01*
X88689500Y-56468385D01*
X88689500Y-62124120D01*
X87853000Y-62124120D01*
X87853000Y-46460750D01*
X87872685Y-46393711D01*
X87925489Y-46347956D01*
X87977000Y-46336750D01*
X117208000Y-46336750D01*
X117275039Y-46356435D01*
G37*
%TD.AperFunction*%
%TD*%
M02*
